:SAMPLES-PER-SECOND 30
:FULLY-SPECIFIED
:DEGREES
203
root  59.1545 37.593 -1.24237 -164.144 1.63207 179.493
RightUpLeg  -39.0724 -25.4163 -5.19825
RightLeg  9.31974 -5.65142 4.94135
RightFoot  13.7877 -2.5505 11.866
RightToes  0.00048216 0.542163 -0.142577
Spine  54.379 -3.93706 5.48968
Spine1  14.8852 -0.0769297 -1.26756
HEad  -24.1905 31.8707 -33.4716
LeftShoulder1  7.12067 -20.0279 -23.9386
LeftArm  -3.71032 -55.5451 -41.64
LeftForeArm  26.9109 -21.5165 -3.67171
LeftHand  -0.25398 0.0180481 5.50724
RightShoulder  6.33087 14.6555 28.8577
RightArm  -8.27756 14.8593 19.5017
RightForeArm  -0.986424 6.23181 8.79297
RightHand  -1.39056 3.23807 -18.8774
LeftUpLeg  -45.7872 21.0348 -17.4333
LeftLeg  28.8013 7.32532 4.69969
LeftFoot  -5.67722 -0.552528 11.8301
LeftToes  1.06246e-005 4.65855e-005 -8.18505e-006
204
root  57.9885 37.6813 -1.05326 -166.041 3.06934 179.83
RightUpLeg  -35.1282 -22.7684 -8.66085
RightLeg  8.13888 -6.73404 4.15969
RightFoot  12.1413 -3.33753 16.3664
RightToes  0.00048216 0.542163 -0.142577
Spine  51.7004 -3.56426 5.334
Spine1  15.0449 0.413798 -1.70355
HEad  -22.3406 33.8102 -34.4789
LeftShoulder1  7.82025 -19.913 -27.2149
LeftArm  -1.65539 -49.0309 -41.0017
LeftForeArm  24.7512 -22.2166 -3.72659
LeftHand  -0.25398 0.0180481 5.50724
RightShoulder  6.37385 14.004 30.4237
RightArm  -6.35131 5.78887 20.6571
RightForeArm  0.202431 6.79968 8.65955
RightHand  -1.21777 2.25718 -18.6013
LeftUpLeg  -43.3764 23.407 -19.2678
LeftLeg  26.7669 6.93176 4.14148
LeftFoot  -5.98564 -0.612163 13.7908
LeftToes  1.06246e-005 4.65855e-005 -8.18505e-006
205
root  56.781 37.8406 -0.857583 -168.219 5.1411 -178.976
RightUpLeg  -34.4672 -23.4977 -6.23639
RightLeg  14.1556 -1.83573 0.899286
RightFoot  9.64207 -2.83177 15.4993
RightToes  0.00048216 0.542163 -0.142577
Spine  49.6901 -3.55863 5.88144
Spine1  14.8902 0.89336 -2.78593
HEad  -20.7542 36.8497 -35.2429
LeftShoulder1  8.29879 -19.3993 -30.1252
LeftArm  -0.8104 -41.5978 -38.5962
LeftForeArm  21.3368 -22.421 -3.88821
LeftHand  -0.25398 0.0180481 5.50724
RightShoulder  6.29247 13.5811 30.8586
RightArm  -5.86284 -1.99368 22.7378
RightForeArm  0.740882 6.19009 8.31109
RightHand  -0.908255 0.560768 -17.6909
LeftUpLeg  -40.609 26.4268 -19.9561
LeftLeg  24.4191 6.62692 3.69876
LeftFoot  -6.29433 -0.623487 14.9157
LeftToes  1.06246e-005 4.65855e-005 -8.18505e-006
206
root  55.5805 38.033 -0.686749 -170.473 7.8777 -177.898
RightUpLeg  -33.3189 -20.1359 -6.02456
RightLeg  25.1781 -4.15018 -2.66559
RightFoot  6.66135 -1.60401 10.3627
RightToes  0.00048216 0.542163 -0.142577
Spine  48.0127 -3.56346 6.08098
Spine1  14.4505 1.12271 -4.1749
HEad  -19.4482 40.7349 -35.6303
LeftShoulder1  8.53815 -18.4507 -32.818
LeftArm  -0.336609 -33.1256 -35.2573
LeftForeArm  17.4277 -22.4349 -4.08331
LeftHand  -0.25398 0.0180481 5.50724
RightShoulder  6.24359 13.4362 30.8874
RightArm  -5.90072 -8.33852 25.0305
RightForeArm  0.365416 5.22664 8.04764
RightHand  -0.505516 -1.71168 -15.6084
LeftUpLeg  -36.9441 28.4182 -19.4517
LeftLeg  21.4404 8.14379 3.37844
LeftFoot  -6.40416 -0.639563 15.6272
LeftToes  1.06246e-005 4.65855e-005 -8.18505e-006
207
root  54.4453 38.1737 -0.576385 -172.603 10.9201 -177.697
RightUpLeg  -31.7613 -17.3809 -6.1988
RightLeg  37.5413 -8.11383 -6.84979
RightFoot  3.92005 -0.753622 5.86196
RightToes  0.00048216 0.542163 -0.142577
Spine  46.1773 -3.45767 5.34012
Spine1  13.686 1.05721 -5.82265
HEad  -18.0548 45.0711 -35.6632
LeftShoulder1  8.6036 -17.0921 -35.6727
LeftArm  0.287328 -23.8148 -31.4287
LeftForeArm  15.0992 -22.39 -4.20469
LeftHand  -0.25398 0.0180481 5.50724
RightShoulder  6.31673 13.3905 31.4274
RightArm  -6.84657 -13.3697 26.8177
RightForeArm  -0.178597 4.50999 7.65257
RightHand  -0.224231 -3.5824 -13.3369
LeftUpLeg  -31.5465 25.3343 -16.0257
LeftLeg  18.1918 15.6901 2.27055
LeftFoot  -6.27201 -0.691543 16.355
LeftToes  1.06246e-005 4.65855e-005 -8.18505e-006
208
root  53.3616 38.2395 -0.53137 -174.555 14.0316 -177.933
RightUpLeg  -29.6475 -17.6942 -5.1726
RightLeg  48.0206 -7.41144 -8.9544
RightFoot  1.39122 -0.539339 4.96004
RightToes  0.00048216 0.542163 -0.142577
Spine  43.2987 -2.98118 4.4146
Spine1  13.8693 1.27891 -7.22924
HEad  -16.3496 48.9007 -35.4208
LeftShoulder1  8.72109 -16.1208 -38.2608
LeftArm  0.917326 -14.5082 -27.946
LeftForeArm  14.6605 -21.9368 -4.26489
LeftHand  -0.25398 0.0180481 5.50724
RightShoulder  6.19879 12.8938 31.8466
RightArm  -9.41452 -17.3616 28.6934
RightForeArm  -0.995936 4.83092 6.90113
RightHand  -0.124179 -4.42078 -12.238
LeftUpLeg  -26.1464 18.4753 -11.7527
LeftLeg  14.7533 26.889 0.212528
LeftFoot  -5.94849 -0.770357 16.9873
LeftToes  1.06246e-005 4.65855e-005 -8.18505e-006
209
root  52.3071 38.2084 -0.536631 -176.363 17.266 -177.944
RightUpLeg  -26.1233 -19.131 -3.47576
RightLeg  55.2579 -4.20255 -6.89009
RightFoot  -0.953008 -0.575424 6.25499
RightToes  0.00048216 0.542163 -0.142577
Spine  39.9591 -2.26581 3.73672
Spine1  14.1291 1.95387 -8.479
HEad  -13.9502 52.3976 -34.3114
LeftShoulder1  8.87675 -15.5279 -40.3661
LeftArm  2.07802 -4.791 -25.0888
LeftForeArm  14.2631 -21.4444 -4.3572
LeftHand  -0.25398 0.0180481 5.50724
RightShoulder  5.95904 12.2412 31.8927
RightArm  -11.9184 -20.9819 30.4855
RightForeArm  -2.36633 6.73975 6.40562
RightHand  -0.125466 -4.42117 -12.2752
LeftUpLeg  -22.5236 13.3288 -9.39762
LeftLeg  11.7419 35.7773 -1.86372
LeftFoot  -5.85449 -0.823136 17.7695
LeftToes  1.06246e-005 4.65855e-005 -8.18505e-006
210
root  51.2665 38.0976 -0.564196 -177.984 20.7852 -177.582
RightUpLeg  -21.0186 -21.1599 -1.43391
RightLeg  59.2627 -1.50993 -3.27025
RightFoot  -2.42527 -0.668192 8.33672
RightToes  0.00048216 0.542163 -0.142577
Spine  36.5741 -1.4375 3.28893
Spine1  14.0735 2.88039 -9.57778
HEad  -11.1351 55.6605 -32.3311
LeftShoulder1  8.90364 -14.9081 -41.9799
LeftArm  3.79537 5.21968 -22.8433
LeftForeArm  13.2499 -21.1508 -4.47588
LeftHand  -0.25398 0.0180481 5.50724
RightShoulder  5.71859 11.7764 31.472
RightArm  -12.2485 -24.114 31.9549
RightForeArm  -3.9401 9.96609 6.51663
RightHand  -0.124026 -4.42714 -12.1282
LeftUpLeg  -20.1373 10.2451 -8.11176
LeftLeg  9.42771 42.6699 -3.48538
LeftFoot  -5.98472 -0.888343 19.5622
LeftToes  1.06246e-005 4.65855e-005 -8.18505e-006
211
root  50.2427 37.929 -0.579669 -179.394 24.4327 -177.203
RightUpLeg  -14.72 -24.1053 0.0235655
RightLeg  60.2546 0.056961 -0.426597
RightFoot  -2.96418 -0.924735 12.278
RightToes  0.00048216 0.542163 -0.142577
Spine  32.9272 -0.519801 2.94763
Spine1  14.0797 3.95843 -10.5808
HEad  -8.34173 58.5667 -29.9041
LeftShoulder1  8.79703 -14.2193 -43.1665
LeftArm  5.44879 14.725 -21.1026
LeftForeArm  12.6579 -20.7819 -4.60372
LeftHand  -0.25398 0.0180481 5.50724
RightShoulder  5.54616 11.409 31.2384
RightArm  -9.28787 -26.2413 32.7982
RightForeArm  -6.26631 14.1521 6.51742
RightHand  -0.0882459 -4.74782 -11.3131
LeftUpLeg  -18.4595 8.01958 -7.34438
LeftLeg  7.13487 48.699 -5.12968
LeftFoot  -5.91992 -1.03187 22.24
LeftToes  1.06246e-005 4.65855e-005 -8.18505e-006
212
root  49.2161 37.7219 -0.539767 179.474 27.8581 -176.966
RightUpLeg  -7.73064 -27.511 0.584119
RightLeg  57.8396 1.1481 1.48242
RightFoot  -3.5443 -1.18297 17.0013
RightToes  0.00048216 0.542163 -0.142577
Spine  29.0156 0.406064 2.80724
Spine1  14.1787 5.03959 -11.3672
HEad  -5.19607 60.9279 -26.9439
LeftShoulder1  8.57612 -13.5387 -43.7959
LeftArm  6.10858 23.2354 -20.184
LeftForeArm  13.3827 -20.0117 -4.78247
LeftHand  -0.25398 0.0180481 5.50724
RightShoulder  5.42066 11.0049 31.4123
RightArm  -5.02057 -27.3555 33.1455
RightForeArm  -8.37183 18.9154 5.8347
RightHand  -0.0722009 -4.88069 -10.3631
LeftUpLeg  -17.2197 6.61305 -7.0066
LeftLeg  3.97173 53.2853 -7.72519
LeftFoot  -5.45934 -1.24281 24.4424
LeftToes  1.06246e-005 4.65855e-005 -8.18505e-006
213
root  48.1357 37.5237 -0.429215 178.843 30.9378 -176.493
RightUpLeg  -0.839384 -30.0214 1.16093
RightLeg  51.7533 1.72087 1.98083
RightFoot  -6.31506 -0.838965 17.6907
RightToes  0.00048216 0.542163 -0.142577
Spine  25.1663 1.08366 3.79982
Spine1  13.9344 6.04382 -12.1956
HEad  -0.976761 62.4173 -23.1518
LeftShoulder1  8.1991 -12.8646 -43.5814
LeftArm  4.61536 30.3387 -20.6011
LeftForeArm  15.9889 -18.2031 -5.20442
LeftHand  -0.25398 0.0180481 5.50724
RightShoulder  5.30813 10.6209 31.633
RightArm  -3.05453 -28.0153 33.2547
RightForeArm  -7.80891 23.8472 5.46632
RightHand  -0.07394 -4.83878 -9.88048
LeftUpLeg  -16.0888 5.57744 -6.57013
LeftLeg  -1.50361 56.7119 -12.6086
LeftFoot  -4.60926 -1.55333 26.3641
LeftToes  1.06246e-005 4.65855e-005 -8.18505e-006
214
root  46.8993 37.2972 -0.23006 178.675 33.9081 -175.565
RightUpLeg  4.69298 -30.5577 2.28462
RightLeg  43.8461 0.699063 0.456738
RightFoot  -13.5102 0.11099 12.8095
RightToes  0.00048216 0.542163 -0.142577
Spine  22.0534 1.49636 6.9011
Spine1  13.2421 7.20149 -13.6212
HEad  3.70555 62.4706 -19.7748
LeftShoulder1  7.79715 -12.1878 -43.2162
LeftArm  0.529657 34.8871 -21.67
LeftForeArm  20.7447 -14.5891 -5.94747
LeftHand  -0.25398 0.0180481 5.50724
RightShoulder  5.1611 10.2754 31.5081
RightArm  -4.19846 -28.6807 33.1358
RightForeArm  -5.00653 29.0404 6.56327
RightHand  -0.061328 -5.01223 -10.3882
LeftUpLeg  -15.5691 4.39942 -5.84796
LeftLeg  -7.80806 59.8712 -18.3664
LeftFoot  -3.30419 -2.08133 29.1652
LeftToes  1.06246e-005 4.65855e-005 -8.18505e-006
215
root  45.365 37.0085 0.112313 178.48 36.9108 -174.473
RightUpLeg  7.3732 -29.0667 3.40841
RightLeg  38.0011 -2.33509 -2.26045
RightFoot  -22.5916 0.523983 6.72278
RightToes  0.00048216 0.542163 -0.142577
Spine  20.6956 1.80619 11.8828
Spine1  12.6485 8.71796 -15.5388
HEad  6.98737 60.8833 -18.7604
LeftShoulder1  7.67116 -11.6461 -44.0809
LeftArm  -3.88137 35.9349 -22.0346
LeftForeArm  25.2511 -9.72179 -6.29513
LeftHand  -0.25398 0.0180481 5.50724
RightShoulder  5.01069 9.94079 31.3225
RightArm  -5.01292 -28.8991 32.2908
RightForeArm  -3.99674 34.3778 7.9225
RightHand  -0.0771632 -4.90326 -11.9176
LeftUpLeg  -16.4707 3.92975 -5.231
LeftLeg  -9.75274 61.6959 -20.3366
LeftFoot  -0.828886 -2.89885 30.7283
LeftToes  1.06246e-005 4.65855e-005 -8.18505e-006
216
root  43.5913 36.8416 0.621611 177.806 39.3819 -173.558
RightUpLeg  6.90412 -26.8527 3.92576
RightLeg  36.5985 -5.03765 -4.30394
RightFoot  -27.5956 0.263624 3.04819
RightToes  0.00048216 0.542163 -0.142577
Spine  21.4764 1.79577 17.0998
Spine1  12.6159 10.1188 -16.815
HEad  8.04746 58.4849 -19.9287
LeftShoulder1  7.94951 -11.4577 -46.3331
LeftArm  -5.71269 34.3614 -21.9621
LeftForeArm  25.7644 -5.75855 -5.82712
LeftHand  -0.25398 0.0180481 5.50724
RightShoulder  4.97048 9.70759 31.6783
RightArm  -5.44568 -27.4136 30.1997
RightForeArm  -2.96843 38.1389 8.97007
RightHand  -0.161845 -4.13598 -13.1284
LeftUpLeg  -16.9183 5.49403 -4.74061
LeftLeg  -8.71371 58.67 -19.9645
LeftFoot  4.09601 -3.70952 26.9562
LeftToes  1.06246e-005 4.65855e-005 -8.18505e-006
217
root  41.7782 36.8604 1.26885 176.771 40.4241 -173.215
RightUpLeg  4.61141 -25.7714 3.66273
RightLeg  37.8977 -5.6451 -4.97604
RightFoot  -28.0146 0.0280262 1.47498
RightToes  0.00048216 0.542163 -0.142577
Spine  23.2357 1.19305 20.5604
Spine1  12.9112 10.5538 -16.5323
HEad  7.98813 56.4165 -20.8988
LeftShoulder1  8.37122 -11.6154 -48.3267
LeftArm  -6.94514 32.2939 -22.9839
LeftForeArm  24.0013 -4.16379 -5.45847
LeftHand  -0.25398 0.0180481 5.50724
RightShoulder  5.06874 9.69106 32.4718
RightArm  -5.94913 -23.6816 27.8187
RightForeArm  0.112662 38.7016 8.9747
RightHand  -0.21643 -3.58578 -12.7052
LeftUpLeg  -18.1933 15.2647 -7.42577
LeftLeg  -1.78485 43.8213 -14.0849
LeftFoot  9.62032 -2.96292 15.6412
LeftToes  1.06246e-005 4.65855e-005 -8.18505e-006
